<svg id="svg" version="1.1" xmlns="http://www.w3.org/2000/svg" xmlns:xlink="http://www.w3.org/1999/xlink" width="400" height="400" viewBox="0, 0, 400,400"><g id="svgg"><path id="path0" d="M131.600 49.820 C 79.858 50.092,75.276 50.251,71.035 51.927 C 59.090 56.648,52.522 65.322,50.686 78.800 C 49.505 87.467,49.201 226.713,50.201 300.500 C 50.497 322.310,50.621 325.102,51.402 327.453 C 54.890 337.950,63.746 346.105,75.088 349.265 L 78.100 350.104 203.700 349.998 C 272.780 349.940,328.175 349.868,326.800 349.838 L 324.300 349.783 327.104 348.725 C 337.838 344.673,344.996 337.595,348.611 327.456 L 349.237 325.700 349.407 317.900 C 350.005 290.575,350.184 102.870,349.632 82.275 L 349.417 74.251 348.591 72.175 C 343.609 59.652,333.075 51.165,321.805 50.595 C 305.354 49.764,213.701 49.390,131.600 49.820 M204.100 103.208 C 234.618 108.029,249.498 143.534,231.267 168.031 C 207.608 199.821,157.226 183.447,157.327 144.000 C 157.391 118.938,179.825 99.373,204.100 103.208 M168.907 186.869 C 170.938 188.133,175.624 191.473,184.800 198.196 C 197.655 207.615,198.158 207.935,199.135 207.297 C 199.446 207.094,204.290 203.542,209.900 199.404 C 220.095 191.883,225.314 188.104,227.417 186.722 L 228.533 185.988 231.217 186.507 C 259.834 192.052,272.971 209.901,274.528 245.350 L 274.662 248.400 268.431 248.400 L 262.200 248.400 262.200 236.700 L 262.200 225.000 246.500 225.000 L 230.800 225.000 230.800 236.700 L 230.800 248.400 219.100 248.400 L 207.400 248.400 207.400 258.774 L 207.400 269.148 199.050 269.282 C 185.813 269.494,183.194 269.712,165.200 272.103 C 127.807 277.071,120.921 273.383,121.684 248.800 C 122.901 209.623,136.653 190.739,167.405 186.016 C 167.463 186.007,168.139 186.391,168.907 186.869 M256.242 242.300 L 256.144 254.000 268.072 254.000 L 280.000 254.000 280.000 263.900 L 280.000 273.800 268.072 273.800 L 256.144 273.800 256.242 285.500 L 256.339 297.200 246.570 297.200 L 236.800 297.200 236.800 285.500 L 236.800 273.800 224.900 273.800 L 213.000 273.800 213.000 263.900 L 213.000 254.000 224.900 254.000 L 236.800 254.000 236.800 242.300 L 236.800 230.600 246.570 230.600 L 256.339 230.600 256.242 242.300 " stroke="none" fill="#475055" fill-rule="evenodd"></path><path id="path1" d="M131.600 49.820 C 79.858 50.092,75.276 50.251,71.035 51.927 C 59.090 56.648,52.522 65.322,50.686 78.800 C 49.505 87.467,49.201 226.713,50.201 300.500 C 50.497 322.310,50.621 325.102,51.402 327.453 C 54.890 337.950,63.746 346.105,75.088 349.265 L 78.100 350.104 203.700 349.998 C 272.780 349.940,328.175 349.868,326.800 349.838 L 324.300 349.783 327.104 348.725 C 337.838 344.673,344.996 337.595,348.611 327.456 L 349.237 325.700 349.407 317.900 C 350.005 290.575,350.184 102.870,349.632 82.275 L 349.417 74.251 348.591 72.175 C 343.609 59.652,333.075 51.165,321.805 50.595 C 305.354 49.764,213.701 49.390,131.600 49.820 M204.100 103.208 C 234.618 108.029,249.498 143.534,231.267 168.031 C 207.608 199.821,157.226 183.447,157.327 144.000 C 157.391 118.938,179.825 99.373,204.100 103.208 M168.907 186.869 C 170.938 188.133,175.624 191.473,184.800 198.196 C 197.655 207.615,198.158 207.935,199.135 207.297 C 199.446 207.094,204.290 203.542,209.900 199.404 C 220.095 191.883,225.314 188.104,227.417 186.722 L 228.533 185.988 231.217 186.507 C 259.834 192.052,272.971 209.901,274.528 245.350 L 274.662 248.400 268.431 248.400 L 262.200 248.400 262.200 236.700 L 262.200 225.000 246.500 225.000 L 230.800 225.000 230.800 236.700 L 230.800 248.400 219.100 248.400 L 207.400 248.400 207.400 258.774 L 207.400 269.148 199.050 269.282 C 185.813 269.494,183.194 269.712,165.200 272.103 C 127.807 277.071,120.921 273.383,121.684 248.800 C 122.901 209.623,136.653 190.739,167.405 186.016 C 167.463 186.007,168.139 186.391,168.907 186.869 M256.242 242.300 L 256.144 254.000 268.072 254.000 L 280.000 254.000 280.000 263.900 L 280.000 273.800 268.072 273.800 L 256.144 273.800 256.242 285.500 L 256.339 297.200 246.570 297.200 L 236.800 297.200 236.800 285.500 L 236.800 273.800 224.900 273.800 L 213.000 273.800 213.000 263.900 L 213.000 254.000 224.900 254.000 L 236.800 254.000 236.800 242.300 L 236.800 230.600 246.570 230.600 L 256.339 230.600 256.242 242.300 " stroke="none" fill="#475055" fill-rule="evenodd"></path></g></svg>